<svg width="28" height="28" viewBox="0 0 28 28" fill="none" xmlns="http://www.w3.org/2000/svg">
<g id="briefcase-fill">
<path id="Vector" d="M17.0974 15.2283L17.0972 15.2278C16.2602 15.5072 15.1295 15.6469 13.9987 15.6469C12.8679 15.6469 11.7372 15.5072 10.9002 15.2278L10.9 15.2283L10.8999 15.2287C10.8998 15.2287 10.8998 15.2287 10.8998 15.2287L17.0974 15.2283ZM17.0974 15.2283L17.0973 15.2278L17.0975 15.2277L17.0983 15.2274L17.1016 15.2263L17.1146 15.222L17.1657 15.2049L17.3618 15.1395L18.0807 14.8995L20.4308 14.1155C22.2528 13.5079 24.3855 12.7972 25.6287 12.3847C25.4127 10.0087 23.4308 8.15642 20.9987 8.15642H19.832V8.15592H19.8315C19.8315 5.57903 17.7423 3.48976 15.1654 3.48976H12.832C10.2551 3.48976 8.16586 5.57903 8.16586 8.15592H8.16536V8.15642H6.9987C4.57243 8.15642 2.63023 10.018 2.40491 12.3847C2.70149 12.4861 4.82448 13.1969 6.87373 13.8823C7.89879 14.2252 8.90541 14.5617 9.65575 14.8124L10.5593 15.1142L10.8113 15.1983L10.8775 15.2203L10.8944 15.2259L10.8987 15.2273L10.8998 15.2277L10.9001 15.2278C10.9001 15.2278 10.8999 15.2278 10.8997 15.228C10.8997 15.2281 10.8996 15.2281 10.8996 15.2281L17.0974 15.2283ZM25.6649 14.8288V19.8226C25.6649 22.3995 23.5756 24.4888 20.9987 24.4888H6.9987C4.42181 24.4888 2.33253 22.3995 2.33253 19.8226V14.8288L10.1707 17.4536C11.247 17.8123 12.6229 17.9917 13.9987 17.9917C15.3745 17.9917 16.7504 17.8123 17.8267 17.4536L25.6649 14.8288ZM15.1654 5.82209H12.832C11.5426 5.82209 10.4982 6.86648 10.4982 8.15592H10.4987V8.15642H17.4987V8.15592H17.4992C17.4992 6.86648 16.4548 5.82209 15.1654 5.82209Z" fill="#02353C" stroke="#02353C" stroke-width="0.001"/>
</g>
</svg>
