<svg width="28" height="28" viewBox="0 0 28 28" fill="none" xmlns="http://www.w3.org/2000/svg">
<g id="calendar-event-fill">
<path id="Vector" d="M9.34017 2.34961C8.69617 2.34961 8.17351 2.87228 8.17351 3.51628C5.59634 3.51628 3.50684 5.60578 3.50684 8.18294V9.42196L24.5069 9.34961V8.18294C24.5069 5.60578 22.4174 3.51628 19.8402 3.51628C19.8402 2.87228 19.3175 2.34961 18.6735 2.34961C18.0295 2.34961 17.5068 2.87228 17.5068 3.51628H10.5068C10.5068 2.87228 9.98417 2.34961 9.34017 2.34961ZM3.50684 11.6829V19.8496C3.50684 22.4268 5.59634 24.5163 8.17351 24.5163H19.8402C22.4174 24.5163 24.5069 22.4268 24.5069 19.8496V11.6829H3.50684ZM18.6735 14.0163H19.8402C20.4842 14.0163 21.0068 14.5389 21.0068 15.1829V16.3496C21.0068 16.9936 20.4842 17.5163 19.8402 17.5163H18.6735C18.0295 17.5163 17.5068 16.9936 17.5068 16.3496V15.1829C17.5068 14.5389 18.0295 14.0163 18.6735 14.0163Z" fill="#02353C"/>
</g>
</svg>
