<svg width="24" height="24" viewBox="0 0 24 24" fill="none" xmlns="http://www.w3.org/2000/svg">
<path d="M12.0137 1.99902C6.49067 1.99902 2.01367 6.47602 2.01367 11.999C2.01367 17.522 6.49067 21.999 12.0137 21.999C17.0937 21.999 21.3577 18.191 21.9517 13.187C22.0157 12.638 21.6246 12.127 21.0756 12.061C20.5277 11.997 20.0157 12.388 19.9517 12.937C19.4767 16.937 16.0777 19.999 12.0137 19.999C7.59567 19.999 4.01367 16.417 4.01367 11.999C4.01367 7.58101 7.59567 3.99902 12.0137 3.99902C12.9367 3.99902 13.8507 4.16601 14.7017 4.46801C15.2217 4.65201 15.7667 4.36301 15.9517 3.84301C16.1357 3.32202 15.8777 2.74603 15.3577 2.56103C14.2937 2.18403 13.1647 1.99902 12.0137 1.99902ZM21.0137 3.99902C20.7577 3.99902 20.4897 4.08903 20.2947 4.28003L11.5757 12.874C11.3187 13.127 11.0597 13.078 10.8577 12.78L9.85766 11.311C9.55166 10.86 8.90967 10.729 8.45167 11.03C7.99267 11.331 7.86367 11.954 8.16967 12.405L9.16967 13.874C10.0707 15.203 11.8337 15.379 12.9827 14.249L21.7326 5.68701C22.1226 5.30301 22.1226 4.66403 21.7326 4.28003C21.5376 4.08803 21.2697 3.99902 21.0137 3.99902Z" fill="#449342"/>
</svg>
