<svg width="17" height="17" viewBox="0 0 17 17" fill="none" xmlns="http://www.w3.org/2000/svg">
<g id="clock-fill">
<path id="Vector" d="M8.51009 1.41602C4.59811 1.41602 1.42676 4.58722 1.42676 8.49935C1.42676 12.4115 4.59811 15.5827 8.51009 15.5827C12.4221 15.5827 15.5934 12.4115 15.5934 8.49935C15.5934 4.58722 12.4221 1.41602 8.51009 1.41602ZM8.51009 4.24935C8.9013 4.24935 9.21842 4.56668 9.21842 4.95768V8.18911L11.1442 10.1151C11.4208 10.392 11.4208 10.8567 11.1442 11.1336C10.8676 11.4099 10.4026 11.4099 10.1259 11.1336L8.00094 9.00864C7.86813 8.87547 7.80176 8.68706 7.80176 8.49935V4.95768C7.80176 4.56668 8.11888 4.24935 8.51009 4.24935Z" fill="#02353C"/>
</g>
</svg>
