<svg width="24" height="25" viewBox="0 0 24 25" fill="none" xmlns="http://www.w3.org/2000/svg">
<g id="clock-history">
<path id="Vector" d="M12.0417 2.76367C6.50369 2.76367 2.01367 7.23966 2.01367 12.7617C2.01367 18.2837 6.50369 22.7607 12.0417 22.7607C14.7447 22.7607 17.2867 21.6947 19.1557 19.8237C19.5467 19.4317 19.5487 18.8067 19.1557 18.4177C18.7637 18.0277 18.1367 18.0257 17.7457 18.4177C16.2497 19.9157 14.2057 20.7607 12.0417 20.7607C7.61169 20.7607 4.01968 17.1797 4.01968 12.7617C4.01968 8.34466 7.61169 4.76367 12.0417 4.76367C12.5957 4.76367 13.0447 4.31567 13.0447 3.76367C13.0447 3.21167 12.5957 2.76367 12.0417 2.76367ZM15.7087 3.66968C15.4657 3.74968 15.2667 3.92168 15.1447 4.16968C14.9007 4.66568 15.0867 5.26967 15.5837 5.51367C15.8507 5.64367 16.0857 5.79068 16.3357 5.95068C16.8017 6.24768 17.4477 6.10367 17.7457 5.63867C18.0437 5.17267 17.8987 4.56067 17.4327 4.26367C17.1187 4.06367 16.7947 3.89567 16.4607 3.73267C16.2127 3.61067 15.9527 3.59068 15.7087 3.66968ZM19.2497 6.1377C18.9957 6.1077 18.7157 6.18669 18.4977 6.35669C18.0627 6.69769 17.9987 7.3287 18.3417 7.7627C18.5247 7.9957 18.7167 8.22969 18.8737 8.48169C19.1657 8.95069 19.7827 9.0847 20.2527 8.7937C20.7237 8.5027 20.8577 7.91968 20.5667 7.45068C20.3707 7.13568 20.1377 6.8047 19.9077 6.5127C19.7367 6.2957 19.5047 6.1687 19.2497 6.1377ZM12.0417 6.7627C11.4887 6.7627 11.0397 7.2107 11.0397 7.7627V12.7617C11.0397 13.0277 11.1647 13.2927 11.3527 13.4807L14.3607 16.4797C14.7527 16.8707 15.3797 16.8707 15.7717 16.4797C16.1627 16.0897 16.1627 15.4337 15.7717 15.0427L13.0447 12.3246V7.7627C13.0447 7.2107 12.5957 6.7627 12.0417 6.7627ZM20.6287 9.7937C20.0877 9.9127 19.7567 10.4417 19.8767 10.9807C19.9407 11.2697 20.0027 11.5607 20.0337 11.8557C20.0917 12.4047 20.5797 12.7887 21.1307 12.7307C21.6807 12.6727 22.0667 12.1867 22.0077 11.6377C21.9687 11.2677 21.9317 10.9047 21.8507 10.5437C21.7317 10.0047 21.1697 9.6747 20.6287 9.7937ZM21.0677 13.8557C20.5297 13.7257 19.9757 14.0687 19.8457 14.6057C19.7757 14.8947 19.6647 15.1717 19.5637 15.4487C19.3737 15.9677 19.6697 16.5097 20.1907 16.6987C20.7107 16.8877 21.2547 16.6557 21.4437 16.1367C21.5707 15.7887 21.7007 15.4357 21.7887 15.0737C21.9187 14.5377 21.6057 13.9857 21.0677 13.8557Z" fill="#02353C"/>
</g>
</svg>
