<svg width="24" height="28" viewBox="0 0 24 28" fill="none" xmlns="http://www.w3.org/2000/svg">
<g id="cutlery 2">
<g id="Group">
<path id="Vector" d="M6.1375 26.25C5.60375 26.25 5.09186 26.038 4.71444 25.6606C4.33702 25.2832 4.125 24.7713 4.125 24.2375L5 13.3H7.3625L8.2375 24.2375C8.23775 24.5094 8.18295 24.7784 8.07639 25.0285C7.96982 25.2785 7.8137 25.5044 7.61746 25.6925C7.42121 25.8805 7.1889 26.0269 6.93454 26.1227C6.68019 26.2186 6.40906 26.2619 6.1375 26.25Z" fill="#02353C" stroke="#02353C" stroke-width="2" stroke-linecap="round" stroke-linejoin="round"/>
<path id="Vector_2" d="M6.1375 13.3C8.69872 13.3 10.775 10.7144 10.775 7.52501C10.775 4.33556 8.69872 1.75 6.1375 1.75C3.57628 1.75 1.5 4.33556 1.5 7.52501C1.5 10.7144 3.57628 13.3 6.1375 13.3Z" fill="#02353C" stroke="#02353C" stroke-width="2" stroke-linecap="round" stroke-linejoin="round"/>
</g>
<g id="Group_2">
<path id="Vector_3" d="M18.3001 26.25C17.7663 26.25 17.2545 26.038 16.877 25.6606C16.4996 25.2832 16.2876 24.7713 16.2876 24.2375L17.1626 13.3H19.5251L20.4001 24.2375C20.4003 24.5094 20.3455 24.7784 20.239 25.0285C20.1324 25.2785 19.9763 25.5044 19.78 25.6925C19.5838 25.8805 19.3515 26.0269 19.0971 26.1227C18.8428 26.2186 18.5716 26.2619 18.3001 26.25Z" fill="#02353C" stroke="#02353C" stroke-width="2" stroke-linecap="round" stroke-linejoin="round"/>
<path id="Vector_4" d="M22.2374 9.36255C22.2145 10.4148 21.7804 11.4162 21.028 12.1523C20.2756 12.8883 19.2649 13.3003 18.2124 13.3C17.1681 13.3 16.1666 12.8852 15.4282 12.1468C14.6897 11.4084 14.2749 10.4068 14.2749 9.36255H22.2374Z" fill="#02353C" stroke="#02353C" stroke-width="2" stroke-linecap="round" stroke-linejoin="round"/>
<path id="Vector_5" d="M14.2749 2.1001V9.36261" stroke="#02353C" stroke-width="2" stroke-linecap="round" stroke-linejoin="round"/>
<path id="Vector_6" d="M18.2124 2.1001V9.1876" stroke="#02353C" stroke-width="2" stroke-linecap="round" stroke-linejoin="round"/>
<path id="Vector_7" d="M22.2373 2.1001V9.36261" stroke="#02353C" stroke-width="2" stroke-linecap="round" stroke-linejoin="round"/>
</g>
</g>
</svg>
