<svg width="127" height="127" viewBox="0 0 127 127" fill="none" xmlns="http://www.w3.org/2000/svg">
<g id="exclamation-triangle-fill">
<path id="Vector" d="M63.5754 10.5772C54.7881 10.5824 48.1745 15.1703 42.9046 24.4678L16.6119 72.5902C12.5426 79.6863 10.6212 84.6764 10.6587 89.9521C10.7429 101.763 20.2388 111.076 31.8254 111.119H95.3254C106.926 111.119 116.448 101.943 116.492 89.9521C116.511 84.6922 114.441 79.3847 110.373 72.5902L84.4113 24.8011C79.5382 15.493 72.4829 10.5719 63.5754 10.5772ZM63.5754 42.3272C66.498 42.3272 68.8671 44.6978 68.8671 47.6188V68.7855C68.8671 71.7065 66.498 74.0772 63.5754 74.0772C60.6528 74.0772 58.2837 71.7065 58.2837 68.7855V47.6188C58.2837 44.6978 60.6528 42.3272 63.5754 42.3272ZM63.5754 79.3688C66.498 79.3688 68.8671 81.7395 68.8671 84.6605C68.8671 87.5815 66.498 89.9521 63.5754 89.9521C60.6528 89.9521 58.2837 87.5815 58.2837 84.6605C58.2837 81.7395 60.6528 79.3688 63.5754 79.3688Z" fill="#EBB057"/>
</g>
</svg>
