<svg width="21" height="21" viewBox="0 0 21 21" fill="none" xmlns="http://www.w3.org/2000/svg">
<path id="Vector" d="M8.83667 0C3.95629 0 0 3.95666 0 8.83676C0 13.7169 3.95629 17.6735 8.83667 17.6735C10.8655 17.6735 12.7884 16.9765 14.28 15.8278L19.0885 20.6769C19.52 21.1077 20.245 21.1077 20.6765 20.6769C21.1078 20.245 21.1078 19.5204 20.6765 19.0885L15.8345 14.2725C16.9842 12.7813 17.6733 10.8659 17.6733 8.83676C17.6733 3.95666 13.7171 0 8.83667 0ZM8.83667 2.20919C12.4969 2.20919 15.4642 5.17613 15.4642 8.83676C15.4642 12.4974 12.4969 15.4643 8.83667 15.4643C5.17641 15.4643 2.20917 12.4974 2.20917 8.83676C2.20917 5.17613 5.17641 2.20919 8.83667 2.20919Z" fill="#02353C"/>
</svg>
