<svg width="24" height="24" viewBox="0 0 24 24" fill="none" xmlns="http://www.w3.org/2000/svg">
<path d="M4.01465 10.0098C2.90965 10.0098 2.01465 10.9048 2.01465 12.0098C2.01465 13.1148 2.90965 14.0098 4.01465 14.0098C5.11965 14.0098 6.01465 13.1148 6.01465 12.0098C6.01465 10.9048 5.11965 10.0098 4.01465 10.0098ZM12.0146 10.0098C10.9096 10.0098 10.0146 10.9048 10.0146 12.0098C10.0146 13.1148 10.9096 14.0098 12.0146 14.0098C13.1196 14.0098 14.0146 13.1148 14.0146 12.0098C14.0146 10.9048 13.1196 10.0098 12.0146 10.0098ZM20.0146 10.0098C18.9096 10.0098 18.0146 10.9048 18.0146 12.0098C18.0146 13.1148 18.9096 14.0098 20.0146 14.0098C21.1196 14.0098 22.0146 13.1148 22.0146 12.0098C22.0146 10.9048 21.1196 10.0098 20.0146 10.0098Z" fill="#188290"/>
</svg>
