<svg width="24" height="24" viewBox="0 0 24 24" fill="none" xmlns="http://www.w3.org/2000/svg">
<path d="M11.999 1.95312C6.47602 1.95312 1.99902 6.43013 1.99902 11.9531C1.99902 17.4761 6.47602 21.9531 11.999 21.9531C17.522 21.9531 21.999 17.4761 21.999 11.9531C21.999 6.43013 17.522 1.95312 11.999 1.95312ZM11.999 3.95312C16.417 3.95312 19.999 7.53512 19.999 11.9531C19.999 16.3711 16.417 19.9531 11.999 19.9531C7.58102 19.9531 3.99902 16.3711 3.99902 11.9531C3.99902 7.53512 7.58102 3.95312 11.999 3.95312ZM8.99902 7.95312C8.74302 7.95312 8.47603 8.03913 8.28003 8.23413C7.89003 8.62513 7.89003 9.28112 8.28003 9.67212L10.561 11.9531L8.28003 14.2341C7.89003 14.6251 7.89003 15.2811 8.28003 15.6721C8.67103 16.0621 9.32702 16.0621 9.71802 15.6721L11.999 13.3911L14.28 15.6721C14.671 16.0621 15.327 16.0621 15.718 15.6721C16.108 15.2811 16.108 14.6251 15.718 14.2341L13.437 11.9531L15.718 9.67212C16.108 9.28112 16.108 8.62513 15.718 8.23413C15.522 8.03913 15.255 7.95312 14.999 7.95312C14.743 7.95312 14.476 8.03913 14.28 8.23413L11.999 10.5151L9.71802 8.23413C9.52202 8.03913 9.25502 7.95312 8.99902 7.95312Z" fill="#EB5757"/>
</svg>
