<svg width="44" height="44" viewBox="0 0 44 44" fill="none" xmlns="http://www.w3.org/2000/svg">
<g id="x-square">
<path id="Vector" d="M12.8441 5.37109C8.79424 5.37109 5.51074 8.65459 5.51074 12.7044V31.0378C5.51074 35.0876 8.79424 38.3711 12.8441 38.3711H31.1774C35.2272 38.3711 38.5107 35.0876 38.5107 31.0378V12.7044C38.5107 8.65459 35.2272 5.37109 31.1774 5.37109H12.8441ZM12.8441 9.03776H31.1774C33.2032 9.03776 34.8441 10.6786 34.8441 12.7044V31.0378C34.8441 33.0636 33.2032 34.7044 31.1774 34.7044H12.8441C10.8182 34.7044 9.17741 33.0636 9.17741 31.0378V12.7044C9.17741 10.6786 10.8182 9.03776 12.8441 9.03776ZM16.5107 14.5378C16.0414 14.5378 15.5519 14.6954 15.1926 15.0529C14.4776 15.7698 14.4776 16.9724 15.1926 17.6892L19.3744 21.8711L15.1926 26.0529C14.4776 26.7698 14.4776 27.9724 15.1926 28.6893C15.9094 29.4043 17.1121 29.4043 17.8289 28.6893L22.0107 24.5074L26.1926 28.6893C26.9094 29.4043 28.1121 29.4043 28.8289 28.6893C29.5439 27.9724 29.5439 26.7698 28.8289 26.0529L24.6471 21.8711L28.8289 17.6892C29.5439 16.9724 29.5439 15.7698 28.8289 15.0529C28.4696 14.6954 27.9801 14.5378 27.5107 14.5378C27.0414 14.5378 26.5519 14.6954 26.1926 15.0529L22.0107 19.2348L17.8289 15.0529C17.4696 14.6954 16.9801 14.5378 16.5107 14.5378Z" fill="#EB5757"/>
</g>
</svg>
