<svg width="43" height="42" viewBox="0 0 43 42" fill="none" xmlns="http://www.w3.org/2000/svg">
<path d="M37.7737 29.8962L36.8929 31.2788L35.8949 32.5794L34.7874 33.788L33.5787 34.8956L32.2781 35.8936L30.8955 36.7744L29.4414 37.5314L27.9268 38.1587L26.3633 38.6517L24.7628 39.0065L23.1375 39.2205L21.4997 39.292L19.8619 39.2205L18.2365 39.0065L16.636 38.6517L15.0725 38.1587L13.558 37.5314L12.1038 36.7744L10.7212 35.8936L9.42062 34.8956L8.21196 33.788L7.10442 32.5794L6.10644 31.2788L5.22561 29.8962L4.46864 28.442L3.84128 26.9275L3.34832 25.364L2.99349 23.7635L2.77952 22.1381L2.70801 20.5003L2.77952 18.8625L2.99349 17.2372L3.34832 15.6367L3.84128 14.0732L4.46864 12.5586L5.22561 11.1045L6.10644 9.72186L7.10442 8.42127L8.21196 7.21261L9.42062 6.10507L10.7212 5.10709L12.1038 4.22626L13.558 3.46929L15.0725 2.84193L16.636 2.34896L18.2365 1.99414" stroke="#E8DEF8" stroke-width="4" stroke-linecap="round"/>
<path d="M24.7627 1.99414L26.3632 2.34896L27.9267 2.84193L29.4413 3.46929L30.8954 4.22626L32.278 5.10709L33.5786 6.10507L34.7873 7.21261L35.8948 8.42127L36.8928 9.72186L37.7736 11.1045L38.5306 12.5586L39.1579 14.0732L39.6509 15.6367L40.0057 17.2372L40.2197 18.8625L40.2912 20.5003L40.2197 22.1381L40.0057 23.7635" stroke="#65558F" stroke-width="4" stroke-linecap="round"/>
</svg>
