<svg width="16" height="21" viewBox="0 0 16 21" fill="none" xmlns="http://www.w3.org/2000/svg">
<path d="M7.99805 0.953125C5.23665 0.953125 2.99805 3.19173 2.99805 5.95312C2.99805 8.71453 5.23665 10.9531 7.99805 10.9531C10.7594 10.9531 12.998 8.71453 12.998 5.95312C12.998 3.19173 10.7594 0.953125 7.99805 0.953125ZM4.46685 12.2656C1.85255 12.9801 -0.00195312 15.2533 -0.00195312 17.9531V19.9531C-0.00195312 20.5054 0.445747 20.9531 0.998047 20.9531H14.9981C15.5504 20.9531 15.9981 20.5054 15.9981 19.9531V17.9531C15.9981 15.2533 14.1435 12.9801 11.5292 12.2656C11.3051 12.2043 11.0849 12.2326 10.873 12.3281C9.95755 12.7407 8.98295 12.9531 7.99805 12.9531C7.01315 12.9531 6.03855 12.7407 5.12305 12.3281C4.91115 12.2326 4.69095 12.2043 4.46685 12.2656Z" fill="#02353C"/>
</svg>
