<svg width="25" height="25" viewBox="0 0 25 25" fill="none" xmlns="http://www.w3.org/2000/svg">
<path id="Vector" d="M6.25 0C3.4 0 0 3.40001 0 6.25001C0 9.28058 2.83195 14.5514 5.94584 17.6653C6.23195 17.95 7.05001 18.7681 7.33473 19.0542C10.4486 22.1681 15.7194 25.0001 18.75 25.0001C21.6 25.0001 25 21.6 25 18.75C25 15.9 21.6 12.5 18.75 12.5C18.1806 12.5 17.5944 12.7264 16.4931 13.2375C16.3917 13.2848 15.5445 13.7 15.3208 13.8028C13.7708 13.3764 11.6708 11.2472 11.1972 9.63612C11.3042 9.4 11.7222 8.59307 11.7625 8.50696C12.2944 7.37918 12.5 6.8264 12.5 6.25001C12.5 3.40001 9.1 0 6.25 0ZM6.25 2.77778C7.56667 2.77778 9.72222 4.93334 9.72222 6.25001C9.72222 6.21529 9.53612 6.71808 9.24445 7.33475C9.20556 7.41808 8.74444 8.31114 8.63749 8.55003C8.30971 9.28336 8.26945 9.5139 8.3764 10.0264C8.95973 12.8056 12.2639 16.1264 15.0167 16.6236C15.5125 16.7125 15.6347 16.6681 16.4056 16.3195C16.6222 16.2223 17.568 15.8 17.6653 15.7556C18.2764 15.4709 18.7792 15.2778 18.75 15.2778C20.0667 15.2778 22.2222 17.4334 22.2222 18.75C22.2222 20.0667 20.0667 22.2223 18.75 22.2223C16.5806 22.2223 11.9736 19.7001 9.33194 17.057C9.04583 16.7723 8.22777 15.9542 7.94305 15.6681C5.29999 13.0264 2.77778 8.41946 2.77778 6.25001C2.77778 4.93334 4.93333 2.77778 6.25 2.77778Z" fill="#02353C"/>
</svg>
