<svg width="148" height="148" viewBox="0 0 148 148" fill="none" xmlns="http://www.w3.org/2000/svg">
<path d="M43.1597 18.4428C39.7539 18.4428 36.9931 21.2055 36.9931 24.6095C36.9931 28.0135 39.7539 30.7762 43.1597 30.7762V43.1095H24.6597H18.4931C15.0872 43.1095 12.3264 45.8722 12.3264 49.2762C12.3264 52.6802 15.0872 55.4428 18.4931 55.4428V123.276C18.4931 126.68 21.2539 129.443 24.6597 129.443H49.3264H73.9931C77.3989 129.443 80.1597 126.68 80.1597 123.276V110.943C80.1597 107.539 82.9212 104.776 86.3264 104.776C89.7322 104.776 92.4931 107.539 92.4931 110.943V123.276C92.4931 126.68 95.2539 129.443 98.6597 129.443H123.326C126.732 129.443 129.493 126.68 129.493 123.276V30.7762C132.899 30.7762 135.66 28.0135 135.66 24.6095C135.66 21.2055 132.899 18.4428 129.493 18.4428H43.1597ZM73.9931 43.1095C77.3989 43.1095 80.1597 45.8722 80.1597 49.2762C80.1597 52.6802 77.3989 55.4428 73.9931 55.4428C70.5872 55.4428 67.8264 52.6802 67.8264 49.2762C67.8264 45.8722 70.5872 43.1095 73.9931 43.1095ZM98.6597 43.1095C102.066 43.1095 104.826 45.8722 104.826 49.2762C104.826 52.6802 102.066 55.4428 98.6597 55.4428C95.2539 55.4428 92.4931 52.6802 92.4931 49.2762C92.4931 45.8722 95.2539 43.1095 98.6597 43.1095ZM30.8264 55.4428H43.1597V117.11H30.8264V55.4428ZM73.9931 67.7762C77.3989 67.7762 80.1597 70.5389 80.1597 73.9429C80.1597 77.3469 77.3989 80.1095 73.9931 80.1095C70.5872 80.1095 67.8264 77.3469 67.8264 73.9429C67.8264 70.5389 70.5872 67.7762 73.9931 67.7762ZM98.6597 67.7762C102.066 67.7762 104.826 70.5389 104.826 73.9429C104.826 77.3469 102.066 80.1095 98.6597 80.1095C95.2539 80.1095 92.4931 77.3469 92.4931 73.9429C92.4931 70.5389 95.2539 67.7762 98.6597 67.7762Z" fill="white"/>
</svg>
