<svg width="23" height="19" viewBox="0 0 23 19" fill="none" xmlns="http://www.w3.org/2000/svg">
<path d="M11.5013 0.497587C8.17238 0.489712 5.36775 2.13333 3.06375 4.82208C2.27513 5.7412 1.58549 6.72334 1.02524 7.70434C0.685488 8.29834 0.478494 8.75732 0.356994 9.04082C0.235494 9.3232 0.235494 9.67196 0.356994 9.95434C0.478494 10.2378 0.685488 10.6968 1.02524 11.2908C1.47636 12.0817 2.00287 12.8872 2.607 13.6466C2.70262 13.7669 3.46199 14.6287 4.11899 15.2981L2.81738 16.5637C2.37863 17.0036 2.37863 17.7416 2.81738 18.1814C3.25726 18.6202 3.99525 18.6202 4.43512 18.1814L20.1851 2.43145C20.6239 1.99158 20.6239 1.25359 20.1851 0.813718C19.9646 0.594343 19.6643 0.497587 19.3763 0.497587C19.0883 0.497587 18.7879 0.594343 18.5674 0.813718L17.1263 2.29083C15.2666 1.04658 13.4171 0.502087 11.5013 0.497587ZM11.5013 4.99758C12.084 4.99758 12.9739 5.15172 13.7861 5.62985L12.0638 7.35332C11.8871 7.26107 11.5508 7.24758 11.5013 7.24758C10.2581 7.24758 9.25126 8.25445 9.25126 9.49758C9.25126 9.54708 9.23551 9.88796 9.28614 10.095C9.07014 10.3571 7.59864 11.7825 7.59864 11.7825C7.20714 11.1007 7.00575 10.2783 7.00125 9.49758C6.98888 7.01246 9.01613 4.99758 11.5013 4.99758ZM20.4315 5.38458C20.4315 5.38458 9.45713 16.3173 7.98563 17.7944C9.60563 18.4368 11.2684 18.4976 11.5013 18.4976C14.8301 18.4976 17.6348 16.8618 19.9388 14.1731C20.7274 13.254 21.417 12.2718 21.9773 11.2908C22.317 10.6968 22.524 10.2378 22.6455 9.95434C22.7681 9.66859 22.7704 9.32545 22.6455 9.04082C22.3901 8.45582 21.9098 7.52546 21.1695 6.43871C20.9704 6.14734 20.4315 5.38458 20.4315 5.38458Z" fill="#182046"/>
</svg>
