<svg width="27" height="27" viewBox="0 0 27 27" fill="none" xmlns="http://www.w3.org/2000/svg">
<path d="M13.5013 4.49756C10.1724 4.49756 7.36775 6.1333 5.06375 8.82204C4.27513 9.74117 3.5855 10.7233 3.02525 11.7043C2.6855 12.2983 2.47849 12.7573 2.35699 13.0408C2.23549 13.3232 2.23549 13.6719 2.35699 13.9543C2.47849 14.2378 2.6855 14.6968 3.02525 15.2908C3.5855 16.2718 4.27513 17.2539 5.06375 18.173C7.36775 20.8618 10.1724 22.4975 13.5013 22.4975C16.8301 22.4975 19.6348 20.8618 21.9388 18.173C22.7274 17.2539 23.417 16.2718 23.9772 15.2908C24.317 14.6968 24.524 14.2378 24.6455 13.9543C24.767 13.6719 24.767 13.3232 24.6455 13.0408C24.524 12.7573 24.317 12.2983 23.9772 11.7043C23.417 10.7233 22.7274 9.74117 21.9388 8.82204C19.6348 6.1333 16.8301 4.49756 13.5013 4.49756ZM13.5013 8.99755C15.9864 8.99755 18.0013 11.0124 18.0013 13.4975C18.0013 15.9827 15.9864 17.9975 13.5013 17.9975C11.0161 17.9975 9.00125 15.9827 9.00125 13.4975C9.00125 11.0124 11.0161 8.99755 13.5013 8.99755ZM13.5013 11.2475C12.2581 11.2475 11.2513 12.2544 11.2513 13.4975C11.2513 14.7407 12.2581 15.7475 13.5013 15.7475C14.7444 15.7475 15.7513 14.7407 15.7513 13.4975C15.7513 12.2544 14.7444 11.2475 13.5013 11.2475Z" fill="#02353C"/>
</svg>
