<svg width="148" height="148" viewBox="0 0 148 148" fill="none" xmlns="http://www.w3.org/2000/svg">
<path d="M73.9864 12.0446C56.9578 12.0446 43.1531 25.8493 43.1531 42.8779C43.1531 59.9065 56.9578 73.7112 73.9864 73.7112C91.0151 73.7112 104.82 59.9065 104.82 42.8779C104.82 25.8493 91.0151 12.0446 73.9864 12.0446ZM52.2107 81.805C36.0892 86.211 24.6531 100.229 24.6531 116.878V129.211C24.6531 132.617 27.4139 135.378 30.8197 135.378H117.153C120.559 135.378 123.32 132.617 123.32 129.211V116.878C123.32 100.229 111.884 86.211 95.7621 81.805C94.3802 81.4269 93.0223 81.6015 91.7156 82.1904C86.07 84.7347 80.06 86.0445 73.9864 86.0445C67.9129 86.0445 61.9028 84.7347 56.2572 82.1904C54.9505 81.6015 53.5926 81.4269 52.2107 81.805Z" fill="white"/>
</svg>
