<svg width="25" height="25" viewBox="0 0 25 25" fill="none" xmlns="http://www.w3.org/2000/svg">
<path d="M12.4907 2.45337C12.2287 2.45337 11.9677 2.53937 11.7717 2.73437L7.08471 7.45335L8.49071 8.85935L11.4907 5.89135V16.4533C11.4907 17.0053 11.9387 17.4533 12.4907 17.4533C13.0427 17.4533 13.4907 17.0053 13.4907 16.4533V5.89135L16.4907 8.85935L17.8967 7.45335L13.2097 2.73437C13.0137 2.53937 12.7527 2.45337 12.4907 2.45337ZM4.49072 14.4533C3.93872 14.4533 3.49072 14.9013 3.49072 15.4533V17.4533C3.49072 19.6623 5.28172 21.4533 7.49072 21.4533H17.4907C19.6997 21.4533 21.4907 19.6623 21.4907 17.4533V15.4533C21.4907 14.9013 21.0427 14.4533 20.4907 14.4533C19.9387 14.4533 19.4907 14.9013 19.4907 15.4533V17.4533C19.4907 18.5583 18.5957 19.4533 17.4907 19.4533H7.49072C6.38572 19.4533 5.49072 18.5583 5.49072 17.4533V15.4533C5.49072 14.9013 5.04272 14.4533 4.49072 14.4533Z" fill="#02353C"/>
</svg>
