<svg width="45" height="44" viewBox="0 0 45 44" fill="none" xmlns="http://www.w3.org/2000/svg">
<g id="fi-rr-user" clip-path="url(#clip0_457_6289)">
<path id="Vector" d="M22.5 22C24.6756 22 26.8023 21.3549 28.6113 20.1462C30.4202 18.9375 31.8301 17.2195 32.6627 15.2095C33.4952 13.1995 33.7131 10.9878 33.2886 8.85401C32.8642 6.72022 31.8166 4.76021 30.2782 3.22183C28.7398 1.68345 26.7798 0.635804 24.646 0.211367C22.5122 -0.213071 20.3005 0.00476615 18.2905 0.83733C16.2805 1.66989 14.5625 3.07979 13.3538 4.88873C12.1451 6.69767 11.5 8.82441 11.5 11C11.5029 13.9165 12.6628 16.7127 14.725 18.775C16.7873 20.8372 19.5835 21.9971 22.5 22ZM22.5 3.66667C23.9504 3.66667 25.3682 4.09676 26.5742 4.90256C27.7801 5.70836 28.7201 6.85367 29.2751 8.19366C29.8302 9.53365 29.9754 11.0081 29.6924 12.4307C29.4095 13.8532 28.711 15.1599 27.6855 16.1855C26.6599 17.211 25.3532 17.9095 23.9307 18.1924C22.5081 18.4754 21.0336 18.3302 19.6937 17.7751C18.3537 17.2201 17.2084 16.2801 16.4026 15.0742C15.5968 13.8682 15.1667 12.4504 15.1667 11C15.1667 9.05508 15.9393 7.18982 17.3146 5.81456C18.6898 4.43929 20.5551 3.66667 22.5 3.66667Z" fill="#188290"/>
<path id="Vector_2" d="M22.5 25.6677C18.1254 25.6726 13.9314 27.4125 10.8381 30.5058C7.7448 33.5991 6.00485 37.7931 6 42.1677C6 42.654 6.19315 43.1203 6.53697 43.4641C6.88079 43.8079 7.3471 44.0011 7.83333 44.0011C8.31956 44.0011 8.78588 43.8079 9.1297 43.4641C9.47351 43.1203 9.66667 42.654 9.66667 42.1677C9.66667 38.7641 11.0187 35.4999 13.4255 33.0932C15.8322 30.6865 19.0964 29.3344 22.5 29.3344C25.9036 29.3344 29.1678 30.6865 31.5745 33.0932C33.9813 35.4999 35.3333 38.7641 35.3333 42.1677C35.3333 42.654 35.5265 43.1203 35.8703 43.4641C36.2141 43.8079 36.6804 44.0011 37.1667 44.0011C37.6529 44.0011 38.1192 43.8079 38.463 43.4641C38.8068 43.1203 39 42.654 39 42.1677C38.9951 37.7931 37.2552 33.5991 34.1619 30.5058C31.0686 27.4125 26.8746 25.6726 22.5 25.6677Z" fill="#188290"/>
</g>
<defs>
<clipPath id="clip0_457_6289">
<rect width="44" height="44" fill="white" transform="translate(0.5)"/>
</clipPath>
</defs>
</svg>
